# xmcd CD database file
#
# Track frame offsets:
#	150
#	13930
#	31390
#	55380
#	74035
#	89735
#	111305
#	128590
#	144965
#	162745
#	182940
#	201835
#	226325
#	244700
#	257850
#	279845
#	292890
#	308680
#
# Disc length: 4512 seconds
#
# Revision: 5
# Processed by: cddbd v1.5.1PL2 Copyright (c) Steve Scherf et al.
# Submitted via: CDex 1.51
#
DISCID=10119e12
DTITLE=Bruce Willis - Classic Bruce Willis
DYEAR=1999
DGENRE=Blues
TTITLE0=Under the boardwalk
TTITLE1=Respect yourself
TTITLE2=Down in Hollywood
TTITLE3=Young blood
TTITLE4=Comin' right up
TTITLE5=Secret agent man/James Bond is back
TTITLE6=Save the last dance for me
TTITLE7=Fun time
TTITLE8=Lose myself
TTITLE9=Flirting with disaster
TTITLE10=Jackpot (Bruno's bop)
TTITLE11=Blues for mr. D
TTITLE12=Tenth avenue tango
TTITLE13=Love makes the world go round
TTITLE14=Here comes trouble again
TTITLE15=Soul shake
TTITLE16=I'll go crazy
TTITLE17=Respect yourself (extended 12" version)
EXTD=YEAR: 1999
EXTT0=
EXTT1=
EXTT2=
EXTT3=
EXTT4=
EXTT5=
EXTT6=
EXTT7=
EXTT8=
EXTT9=
EXTT10=
EXTT11=
EXTT12=
EXTT13=
EXTT14=
EXTT15=
EXTT16=
EXTT17=
PLAYORDER=
